<?xml version="1.0" encoding="utf-8" ?>
<svg baseProfile="full" height="300mm" version="1.1" viewBox="0,0,200,300" width="200mm" xmlns="http://www.w3.org/2000/svg" xmlns:ev="http://www.w3.org/2001/xml-events" xmlns:xlink="http://www.w3.org/1999/xlink"><defs /><rect fill="#222222" height="300" width="200" x="0" y="0" /><text fill="#FFFFFF" style="font-size:12px; font-family:Arial; font-weight:bold;" x="10" y="20">Over 10km Runs</text><text fill="#FFFFFF" style="font-size:4px; font-family:Arial" x="10" y="280">Runner</text><text fill="#FFFFFF" style="font-size:9px; font-family:Arial" x="10" y="290">Ennui</text><text fill="#FFFFFF" style="font-size:4px; font-family:Arial" x="65" y="280">SPECIAL TRACKS</text><rect fill="yellow" height="2.6" width="2.6" x="65" y="283" /><text fill="#FFFFFF" style="font-size:3px; font-family:Arial" x="70" y="285.5">Over 20.0 km</text><rect fill="red" height="2.6" width="2.6" x="65" y="287" /><text fill="#FFFFFF" style="font-size:3px; font-family:Arial" x="70" y="289.5">Over 40.0 km</text><text fill="#FFFFFF" style="font-size:4px; font-family:Arial" x="120" y="280">STATISTICS</text><text fill="#FFFFFF" style="font-size:3px; font-family:Arial" x="120" y="285">Number: 6</text><text fill="#FFFFFF" style="font-size:3px; font-family:Arial" x="120" y="290">Weekly: 1.5</text><text fill="#FFFFFF" style="font-size:3px; font-family:Arial" x="141" y="285">Total: 62.1 km</text><text fill="#FFFFFF" style="font-size:3px; font-family:Arial" x="141" y="290">Avg: 10.3 km</text><text fill="#FFFFFF" style="font-size:3px; font-family:Arial" x="167" y="285">Min: 10.0 km</text><text fill="#FFFFFF" style="font-size:3px; font-family:Arial" x="167" y="290">Max: 12.0 km</text><polyline fill="none" points="83.26655896601733,38.29034170770319 82.97576736670453,38.50258766222396 82.85945072688628,38.785582028736826 82.9176090467954,39.03320187481586 83.20840064622462,39.35156994042336 83.67366720514838,39.59918930762797 84.45880452345591,39.42231835244456 84.57512116315775,39.42231835244456 84.77867528272327,39.56381512511871 85.44749596121255,41.58013670085347 85.65105008077808,42.358362364640925 85.88368336029816,42.995090913638705 85.91276252013631,43.13658595850575 85.88368336029816,43.348828397574835 85.76736672047991,43.41957584308693 83.55735056544654,44.30391746852547 81.46365104999859,45.01138884451939 80.12600969302002,45.64811162048136 80.0096930534346,45.71885850999388 79.9224555734545,45.93109907611506 79.9224555734545,46.32020638076938 79.83521809359081,46.60319318648544 80.9402261711657,50.42348827715614 81.57996768993326,51.69690889064805 81.8998384490842,52.82883367242175 82.39418416807894,53.89000917886733 83.12116316636093,55.2695315842866 83.52827140549198,56.259953915927326 83.52827140549198,56.472186836617766 83.32471728592645,56.61367536490434 81.72536348947324,57.002768464939436 80.882067851373,57.25037289553438 80.67851373180747,57.42723307484994 80.59127625182737,57.53334913123399 80.56219709222205,57.85169706924353 80.64943457185291,58.382276196207386 81.49273021006957,61.105900571419625 81.95799676899333,61.91944579270785 82.5686591276899,63.40504427414271 82.88852988695726,64.21858310390962 82.97576736670453,64.57229493316845 83.20840064622462,65.10286187563906 83.29563812597189,65.49194368859753 83.20840064622462,65.70416991409729 82.51050080766436,65.63342785590794 82.65589660743717,65.38583051817841 82.65589660743717,65.13823297084309 81.92891760892235,63.19281638143002 81.34733441029675,62.202417513442924 80.85298869130202,61.81333132690634 80.56219709222205,61.777959829807514 79.45718901441433,62.096303150232416 77.33441033924464,62.980588334728964 76.05492730205879,63.58190073384321 75.44426494336221,63.93561333275284 75.21163166395854,64.00635580107337 73.75767366716173,63.86487084708642 72.6817447495414,63.97098456902313 72.3909531502286,63.90024209202966 72.33279483031947,63.688014558458235 71.89660743135028,62.980588334728964 71.34410339256283,61.63647379830945 71.40226171247195,61.53035923000425 72.1001615509158,61.03515740169678 71.89660743135028,61.105900571419625 71.25686591269914,61.565730757050915 69.65751211624593,62.13167460897239 69.57027463649865,62.273160400945926 70.06462035537697,62.768360134155955 70.5589660742553,63.723385824705474 70.44264943455346,64.11246947178734 70.4135702745989,64.5015526014904 70.5589660742553,65.06749077601125 70.84975767368451,65.52731473679887 71.48949919210281,65.98713797520031 71.86752827139571,67.1543783355446 71.83844911144115,67.3666033554764 71.7221324716229,67.4373449945997 71.02423263329547,67.6849405967514 68.31987075938378,68.46309683975414 67.76736672047991,68.71069157411694 66.6042003229959,69.0643979741726 63.49273021006957,69.84255054945243 63.28917609038763,69.94866210388136 63.20193861052394,70.19625558148255 63.260096930433065,70.40847839548951 63.40549273020588,70.58533062294009 63.521809369907714,70.6914419081877 63.7544426494278,70.6914419081877 65.29563812597189,70.23162606116966 67.36025848134886,69.73643895646092 67.79644588043448,69.70106841687812 68.08723747974727,69.84255054945243 68.20355411956552,70.01940311884391 68.49434571887832,70.79755315487273 68.93053311784752,71.46959015729954 69.51211631658953,73.20273109443951 70.32633279485162,76.13843620443367 70.35541195468977,76.52750334629673 70.23909531487152,76.70435187625117 66.48788368341047,77.4824841384252 64.30694668821525,77.83617993726511 60.061389337526634,78.68504811084131 59.71243941842113,78.64967865269864 57.79321486270055,78.01302767652669 56.94991922460031,77.83617993726511 56.019386106636375,78.04839721147437 53.46042003238108,78.89726476944634 51.04684975766577,80.45351556458627 50.40710823901463,80.94868453691015 48.57512116304133,82.186603302398 46.07431340869516,84.06115603714716 43.36995153466705,85.86495959825697 40.81098546029534,87.66875204315875 39.70597738283686,88.80053770542145 37.583198707550764,91.2409356480639 35.51857835217379,93.50447497199639 35.024232633179054,93.92888664649217 34.79159935377538,93.96425425817142 33.74474959622603,93.82278378546471 33.51211631658953,93.75204852357274 33.39579967688769,93.6813132444804 30.5460420033196,89.86158278924995 30.371567043475807,89.72011033372837 30.255250403890386,89.72011033372837 29.61550888523925,90.28599974579993 28.62681744748261,90.99335997260641 23.945072697941214,94.60087053920142 21.38610662368592,96.51071107498137 20.6009693054948,97.11195459062583 20.13570274633821,97.43025948124705 16.326332794851623,100.40108843662892 16.006462035467848,100.61328935108031 15.017770597711205,100.93159043454216 14.26171243947465,101.70965829229681 14.05815831979271,101.70965829229681 14.029079159954563,101.63892493612366 14.0,101.56819156286656 14.116316639701836,101.32062462181784 14.668820678605698,100.6486561553611 15.075928917620331,100.29498792169034 15.33764135709498,100.153520508582 16.093699515331537,99.90595237122034 16.558966074255295,99.65838402445661 18.158319870824926,98.31443791702623 20.368336025858298,96.79364935378544 22.520193860982545,94.81307565857423 23.392568659153767,94.2118274209788 25.486268174368888,92.97395951344515 27.17285945068579,91.5238790208532 28.39418416796252,90.71041608703672 29.411954765790142,89.86158278924995 29.964458804461174,89.47253337185248 30.28432956384495,89.40179705858463 30.487883683410473,89.47253337185248 30.836833602632396,89.75547845399706 31.214862681692466,90.21526362918667 33.27948303706944,92.93859178197454 33.74474959622603,93.43373963303748 34.06462035549339,93.61057794824592 34.820678513729945,93.6813132444804 35.08239095308818,93.61057794824592 38.222940226085484,90.21526362918667 39.85137318249326,88.34075030800886 40.69466882070992,87.45654174420633 46.45234248787165,83.42451683201944 47.90630048466846,82.50492442437098 49.621970920823514,81.30237614703947 51.77382875594776,79.64002186304424 53.40226171235554,78.57893972372403 56.54281098546926,77.51785373757593 57.12439418421127,77.41174492731807 57.415185783524066,77.44711453502532 58.054927302058786,77.62396250918391 59.91599353798665,78.3313533377368 60.52665589656681,78.36672283420921 63.6090468497714,77.58859292295529 64.62681744748261,77.41174492731807 65.84814216464292,77.09341826601303 67.1276252019452,76.98730930188322 68.84329563821666,76.6689821788168 69.33764135709498,76.52750334629673 69.68659127620049,76.35065470956033 69.80290791601874,76.24454547619098 69.89014539588243,76.03232689402648 69.91922455560416,75.67862891522236 69.86106623581145,75.28956064474187 69.54119547654409,74.08698272053152 68.90145395800937,72.03551485706703 67.97092084004544,69.80718002276262 67.79644588043448,69.73643895646092 67.41841680125799,69.77180949170724 64.68497576739173,70.58533062294009 64.0452342487406,70.72681232800824 63.84168012929149,70.72681232800824 64.27786752814427,70.44384884959436 64.36510500800796,70.30236700773821 64.51050080778077,69.73643895646092 64.80129240709357,69.48884508991614 66.86591276247054,68.74606223340379 68.20355411956552,68.46309683975414 71.19870759290643,67.61419901752379 71.54765751201194,67.50808661649353 71.98384491098113,67.22512002594885 71.9547657512594,66.90678228455363 71.69305331178475,66.2347348042822 71.80936995148659,66.72992783412337 71.83844911144115,67.01289490348427 71.75121163157746,66.97752403479535 71.4313408723101,66.09325092754443 71.31502423260827,65.91639598552138 70.84975767368451,65.5980568206287 70.5589660742553,65.06749077601125 70.50080775434617,64.85526408892474 70.50080775434617,63.65264328784542 69.97738287551329,62.768360134155955 69.30856219714042,61.81333132690634 69.10500807745848,60.85829940298572 69.16316639725119,60.646069663227536 69.30856219714042,60.53995473563555 69.89014539588243,60.2569814074086 70.61712439416442,60.00937952072127 70.73344103374984,59.9032643623068 70.29725363489706,59.05434170953231 70.21001615514979,58.735995079856366 70.15185783524066,58.453020007233135 70.44264943455346,57.03814053925453 70.79159935377538,55.9416042464436 71.31502423260827,53.57165693107527 71.80936995148659,51.767654317693086 72.21647819073405,50.63572543091141 72.59450726979412,50.03438642894616 73.11793214851059,49.43304619099945 73.61227786750533,49.00856998495874 74.5137318255147,48.407227639108896 78.09046849759761,47.09841943785432 80.09693053318188,46.178712875262136 84.9822294022888,44.44541188067524 85.94184168009087,43.914807482709875 86.0,43.773312814038945 85.97092084016185,43.41957584308693" stroke="#4DD2FF" stroke-linecap="round" stroke-linejoin="round" stroke-width="0.5"><title>2025-12-15 10.0km</title><desc>16746108493</desc></polyline><polyline fill="none" points="185.94228456914425,40.093965700332774 185.85571142286062,40.02375648674206 185.79799599200487,40.16417489701416 185.97114228468854,41.252415274473606 186.0,41.60345968758338 185.82685370731633,41.81408613175154 184.7879759519128,42.13002551146201 183.6336673347978,42.65659038047306 181.49819639278576,43.46398799176677 178.52585170336533,44.517111936962465 174.0240480962675,46.27231002505869 172.9274549097754,46.83397117245477 171.83086172351614,47.53604607921443 170.09939879761077,48.238119288522284 169.29138276539743,48.72956952510867 169.17595190380234,48.90508726518601 169.14709418837447,49.11570841324283 169.57995991990902,50.37943209343939 169.8396793587599,51.397427725372836 170.04168336675502,52.02928528818302 170.0705410821829,52.4154197886819 169.57995991990902,54.626907491358 169.26252505020238,55.64488823382999 169.08937875751872,56.03101792684174 169.1182364729466,56.45224973364384 169.0028056112351,56.8383783531317 168.68537074152846,57.57553156471113 168.33907815627754,58.17227327032015 167.73306613217574,58.94452542197541 167.4444889780134,59.19024158504908 165.5110220439965,60.208206331619294 163.7218436873518,60.804942627612036 161.9326653307071,61.15596340544289 160.836072144215,61.261269556038314 159.65290581178851,61.54208577092504 159.0468937875703,61.647391781560145 158.61402805603575,61.752697753952816 157.9791583166225,62.03351349377772 155.3242484970251,62.45473659419804 154.51623246492818,62.665347915375605 153.82364729454275,62.91106093037524 153.10220440884586,63.08657009957824 152.03446893789805,63.19187554999371 149.40841683361214,63.78860571543919 148.3695390780922,63.82370745160733 148.34068136278074,64.17472458072007 149.03326653316617,66.77223815053003 149.23527054104488,67.64977126865415 149.52384769544005,69.47503166136448 149.63927855703514,69.96644596097758 150.33186372753698,71.26517975045135 150.70701402798295,72.42350498735323 151.1398797595175,73.26592043988057 151.48617234476842,74.07323295570677 152.43847695400473,76.03885404596804 152.66933867742773,76.31965597288217 153.3042084169574,76.42495662547299 154.34308617236093,76.46005683462135 155.6993987977039,76.07395430165343 156.76713426865172,75.9335532533878 157.2577154309256,76.00375378597528 159.76833667326719,76.74085835443111 160.02805611223448,76.74085835443111 161.35551102203317,76.56535743639688 163.66412825661246,75.96865352179157 165.2801603205735,75.72295155352913 166.4633266533492,75.40704871769412 167.84849699400365,75.23154699371662 169.349098196486,74.88054322759854 169.43567134276964,74.81034242344322 169.49338677350897,74.70504118545796 169.52224448905326,74.49443859499297 169.26252505020238,73.1606186418503 168.88737474964,72.10759856269578 168.62765531078912,70.87907031158102 167.96392785583157,69.15912202972686 167.93507014028728,69.01871763859526 167.96392785583157,68.8432120544021 168.1370741482824,68.91341430076864 168.19478957925458,69.05381874274462 168.68537074152846,70.24725375892012 169.17595190380234,71.68638946206192 169.89739478961565,74.28383585170377 169.9551102204714,74.74014160243678 169.86853707407136,74.98584440202103 167.0693386773346,75.58255033561727 165.22244488983415,75.9335532533878 163.4621242485009,76.38985641225008 160.20120240480173,77.02165960264392 159.71062124252785,77.0918598723074 159.47975951898843,77.05675973961479 157.02685370738618,76.21435528204893 156.76713426865172,76.17925504336017 154.92024048091844,76.70575817921781 153.27535070141312,77.23226036073174 151.22645290580112,78.60116156595177 150.73587174352724,78.98726073943544 149.3507014028728,79.89985674564377 140.57795591198374,86.11245335621061 139.36593186366372,87.34091717665433 138.35591182368807,88.56937580156955 136.36472945904825,90.64019429459586 135.26813627255615,91.90373730953434 134.92184368730523,92.18452389974846 134.7198396793101,92.21962220451678 134.34468937886413,92.21962220451678 133.73867735476233,92.14942559087649 133.36352705408353,92.0090323126642 132.78637274552602,91.34216331478092 131.89178356726188,90.00842072608066 130.8817635270534,88.70977074219263 130.3911823646631,88.14819057256682 130.30460921837948,88.07799297495512 130.1891783567844,88.07799297495512 128.14028056128882,89.58723758367705 127.50541082164273,90.00842072608066 125.8605210421374,91.37726172117982 122.36873747501522,93.97453203209443 120.03126252500806,95.8347248743521 117.49178356712218,97.69490580467391 116.39519038086291,98.60744303793763 116.1643286573235,98.74783312721411 115.01002004009206,99.16900298761902 114.31743486982305,99.90604877396254 114.17314629268367,99.97624351325794 114.0,99.87095139801386 114.02885771542788,99.69546445435844 114.1154308617115,99.55507482320536 115.09659318637569,98.60744303793763 115.41402805619873,98.39685777705745 116.42404809617437,97.97568679708638 116.94348697410896,97.69490580467391 119.22324649302755,96.11550766491564 120.17555110238027,95.34335433793603 121.21442885778379,94.64139498685836 123.2344689379679,92.99178383481922 125.19679358717985,91.65804882047814 127.47655310633127,89.72763203227078 128.0248496994609,89.3766457834281 128.89058116253,88.67467201349791 130.04488977964502,87.97269654695992 130.1891783567844,87.93759772903286 130.4488977957517,87.97269654695992 131.28577154316008,88.70977074219263 132.41122244496364,90.21901206829352 133.0749498999212,91.20176964648999 133.56553106219508,91.69314718875103 133.9983967936132,91.86863896663999 134.89298597211018,91.90373730953434 136.79759519046638,89.97332215413917 137.34589178371243,89.34154713529279 138.12505010014866,88.49917830579216 138.87535070138983,87.62170817740844 140.66452905803453,85.79656181976316 141.674549098243,85.1647777162434 142.74228456919082,84.28729751505307 146.20521042088512,81.93563750383328 147.3018036072608,81.26874537873664 148.48496993992012,80.28595419277553 149.78356713429093,79.51375878529507 151.80360721447505,77.93426178474328 153.0444889779901,77.12696000069263 153.765931863687,76.95145931601292 155.64168336673174,76.24945551669225 156.7959919840796,76.00375378597528 157.54629258508794,76.03885404596804 159.22004008025397,76.56535743639688 160.20120240480173,76.67065799990087 161.26893787574954,76.53025723999599 162.30781563115306,76.24945551669225 163.0292585171992,76.17925504336017 163.54869739478454,76.00375378597528 164.76072144287173,75.72295155352913 168.42565130267758,75.05604516365565 169.14709418837447,74.81034242344322 169.40681362722535,74.59973990925937 169.49338677350897,74.38913724236772 169.52224448905326,74.03813245828496 169.43567134276964,73.65202670564759 168.82965931866784,71.93209484498948 168.56993987970054,70.8439694280678 168.10821643297095,69.43993060817593 167.99278557114303,68.87831317970995 168.05050100199878,68.70280751062091 168.10821643297095,68.63260521326447 168.22364729456604,68.77300979089341 168.65651302598417,70.42275849473663 169.29138276539743,72.24800146053894 169.63767535064835,73.51162448662217 169.78196392790414,74.28383585170377 169.78196392790414,74.56463947537122 169.66653306619264,74.81034242344322 169.349098196486,74.98584440202103 167.5599198397249,75.44214904980618 159.76833667326719,77.02165960264392 159.36432865739334,76.9865594615112 157.4597194388043,76.35475619474892 156.99799599207472,76.21435528204893 156.6517034068238,76.17925504336017 155.38196392788086,76.6004576284613 153.24649298610166,77.23226036073174 152.9290581162786,77.40776087576523 149.84128256514668,79.5488586210995 149.206412825617,79.93495653476566 147.7923847696511,80.95284857440856 143.63687374757137,83.79590744449524 143.4637274548877,83.90120538673364 143.29058116232045,83.83100676277536 143.31943887774833,83.65551012876676 143.4637274548877,83.55021209749975 144.18517034081742,83.12901959044393 145.97434869746212,81.93563750383328 147.76352705410682,80.53165230096783 148.77354709419888,80.00515610026196 149.06212424859405,79.79455735284137 149.0909819639055,79.58395845259656 149.03326653316617,79.47865894518327 148.48496993992012,78.42566177199478 147.99438877764624,77.33756068247021 147.09979959914926,75.72295155352913 147.04208416840993,75.61765064642532 147.04208416840993,75.44214904980618 147.21523046097718,75.12624590838095 147.4172344688559,74.95074401475722 149.11983967933338,74.21363490336807 150.01442885783035,73.68712724983925 150.10100200411398,73.54672504769405 149.98557114228606,73.2308198447572 149.3218436873285,71.9671955970407 149.0909819639055,71.23007891362067 148.513827655348,69.89624396915315 148.08096192392986,68.10608744228375 148.0232464930741,68.00078377357568 147.76352705410682,67.86037882251549 147.5326653306838,67.82527757409844 147.1863727454329,67.89548006662517 147.21523046097718,67.82527757409844 147.70581162336748,67.47426485718461 147.7923847696511,67.2987583396025 147.87895791581832,66.77223815053003 147.70581162336748,65.89470238084323 147.4460921844002,65.68409340159269 146.52264529070817,65.75429641161463 146.29178356716875,65.68409340159269 146.20521042088512,65.61389037454501 146.08977955917362,65.12246871020761 146.03206412820145,64.59594457561616 146.14749499002937,64.35023298615124 146.40721442888025,64.17472458072007 147.24408817640506,63.89391091131256 147.4172344688559,63.82370745160733 147.50380761525594,63.648198727925774 147.35951903811656,62.98126461071661 147.33066132257227,62.665347915375605 147.12865731469356,61.68249377666507 146.464929859736,60.10289979921072 146.4937875752803,59.92738882693811 146.63807615241967,59.646571050659986 147.70581162336748,58.83921843141434 148.77354709419888,57.75104395838571 149.5815631262958,57.08409629823291 151.42845691391267,56.41714710634551 154.1410821644822,55.118346915987786 156.5362725451123,54.31098170767655 157.83486973959953,53.74933502168278 158.78717434871942,53.22279026688193 161.12464929872658,52.34521355401375 161.87494989985134,51.959078960178886 162.3943887775531,51.397427725372836 162.5386773548089,51.3272212446027 163.37555110210087,51.18680823218892 164.87615230458323,50.55494883630308 165.71302605210803,50.2390186227567 167.38677354715765,49.39653637292213 169.63767535064835,48.44874092034297 171.3979959919816,47.571149780007545 172.17715430853423,47.2903200549481 173.73547094175592,46.27231002505869 175.38036072149407,45.60533600131748 176.33266533073038,45.35960834330763 176.99639278568793,45.113880477292696" stroke="#4DD2FF" stroke-linecap="round" stroke-linejoin="round" stroke-width="0.5"><title>2025-12-07 12.0km</title><desc>16672159472</desc></polyline><polyline fill="none" points="82.91636363626458,118.33062031678855 82.77090909087565,118.54295189888217 82.80000000004657,118.82606043532724 82.9454545454355,119.03839165801764 83.20727272727527,119.21533422591165 83.64363636355847,119.32149971541367 84.63272727257572,119.1445572116354 84.89454545441549,119.32149971541367 85.09818181814626,120.24159901053645 85.65090909099672,121.79868353685015 85.94181818177458,122.78955119577586 86.0,123.00187954341527 85.97090909082908,123.14343168961932 85.91272727272008,123.214207736979 85.44727272714954,123.32037177612074 84.02181818184908,123.99274312949274 81.4618181817932,124.87743992553442 80.35636363632511,125.37286896354635 78.4363636362832,126.11601094828802 74.91636363638099,127.35457673040219 73.78181818174198,127.92077648540726 72.79272727260832,128.55774990076316 69.6509090908803,130.00862861727364 67.29454545443878,131.21179087928613 66.91636363626458,131.45950014298433 66.85818181815557,131.91953107641893 66.74181818170473,132.1672397412476 66.74181818170473,132.3795612870017 67.76000000000931,133.79503432378988 67.90545454539824,134.0781281098898 68.39999999990687,135.38743330939906 68.69090909091756,136.4844142384827 68.66181818174664,136.732119040651 68.60363636363763,136.83827817742713 67.52727272722404,137.22752801634488 67.14909090904985,137.54600477215718 66.71272727265023,137.7229361535865 66.5381818182068,137.97063990778406 66.5963636363158,138.1829572446877 67.20727272715885,139.13838335487526 67.7309090908384,140.16457829636056 67.7309090908384,140.48305185727077 67.58545454544947,140.6953673720418 64.93818181811366,141.8984857138421 64.18181818176527,142.11080020203372 63.1636363635771,142.35850024377578 61.27272727258969,142.5708143983793 59.76000000000931,143.03082787193125 58.94545454531908,143.1723703336611 57.112727272557095,143.7031539560121 55.832727272761986,143.80931056509144 53.76727272733115,144.37547849616385 52.74909090914298,144.4108639555925 50.6254545453703,144.87087453791173 50.01454545452725,144.9062599373283 48.26909090904519,145.15395761386026 48.181818181765266,145.0124161101121 48.12363636365626,144.4816348614695 48.00727272720542,143.98623816116014 47.919999999925494,143.80931056509144 47.94909090909641,144.09239466750296 48.15272727271076,144.62317662188434 48.618181818164885,145.43704041629098 49.37454545451328,147.8432331844815 49.51999999990221,149.01093725374085 49.86909090913832,150.17863666583435 49.956363636418246,151.06325433202437 50.043636363581754,151.41710065005464 50.1890909090871,151.70017739664763 50.683636363595724,152.40786806566757 50.829090908984654,152.7970972044859 50.974545454606414,153.4694008618826 51.294545454438776,154.38939283878426 51.70181818190031,155.2032294855453 52.167272727238014,156.01706387026934 52.719999999855645,157.3262709598057 52.92363636358641,157.60934199320036 53.06909090897534,157.78626125023584 53.30181818176061,157.89241275304812 53.70909090898931,157.92779657873325 55.076363636297174,157.92779657873325 57.199999999953434,157.46780651071458 59.87636363634374,158.3170183795737 60.167272727238014,158.3170183795737 66.2472727271961,156.937047842046 66.9454545454355,156.79551203444134 68.05090909090359,156.7247441051004 69.35999999998603,156.47705621737987 69.82545454544015,156.33552018753835 69.941818181891,156.26475214702077 70.058181818109,156.0878319706244 70.058181818109,155.6986072064028 69.88363636354916,155.1324611712771 69.3018181816442,152.7970972044859 68.4581818182487,150.49709933355916 68.42909090907779,150.21402142374427 68.54545454541221,150.1078671370633 68.71999999997206,150.24940617740504 68.8654545454774,150.63863818580285 69.50545454537496,152.62017493275926 70.14545454538893,154.84938774319016 70.37818181805778,155.9462957525684 70.3490909091197,156.3001361693896 70.26181818183977,156.44167221637326 69.88363636354916,156.58320819487562 68.19636363640893,156.97243178318604 64.12363636365626,157.68010970886098 60.40000000002328,158.45855345160817 59.934545454452746,158.4939372089575 59.11999999987893,158.3170183795737 57.112727272557095,157.57395812903997 53.62181818194222,158.6708559313265 49.05454545444809,161.74922458908986 46.261818181723356,163.80145238092518 40.850909090950154,167.58742108088336 39.62909090903122,168.82581143276184 38.901818181737326,169.7457551608095 38.23272727266885,170.4180199035909 36.021818181849085,172.85938941096538 35.20727272715885,173.63779280046583 34.97454545437358,173.7439385567559 34.450909090810455,173.7439385567559 33.72363636363298,173.60241087304894 33.51999999990221,173.4962650653033 32.58909090899397,172.36404072213918 30.669090909068473,169.7457551608095 30.49454545439221,169.56884312990587 30.320000000065193,169.56884312990587 28.341818181797862,171.12566533390782 27.149090909049846,171.93945546471514 26.276363636367023,172.71786129963584 23.425454545300454,174.94692110733013 22.639999999897555,175.44226542694378 20.80727272713557,176.78676721377997 19.64363636355847,177.74206736363703 18.567272727144882,178.52045777416788 16.67636363627389,180.07723238811013 16.181818181765266,180.3956625397259 15.163636363460682,180.82023553646286 14.843636363511905,181.03252180397976 14.290909090894274,181.59861776506295 14.174545454443432,181.66937968318234 14.0,181.59861776506295 14.0,181.42171289472026 14.116363636334427,181.20942690927768 15.018181818071753,180.25413807059522 15.599999999976717,179.971088927472 16.181818181765266,179.75880189044983 17.083636363502592,179.22808362470823 17.665454545407556,178.80350831960095 18.683636363595724,177.88359304671758 19.61454545450397,177.3174899040023 20.86545454536099,176.220661950676 21.70909090898931,175.68993727266206 23.163636363460682,174.59310322318925 23.512727272580378,174.38081228747615 24.239999999990687,173.77932046708884 25.083636363502592,173.28397333441535 27.643636363674887,171.26719421485905 28.86545454536099,170.38263758723042 29.6218181818258,169.78113755423692 30.290909090894274,169.35654855173198 30.523636363563128,169.3211661069945 30.669090909068473,169.39193099207478 32.67636363627389,172.08098395218258 33.34545454534236,172.93015344094601 33.75272727268748,173.3547372618341 34.101818181807175,173.46088312083157 34.829090908984654,173.4962650653033 35.14909090893343,173.46088312083157 36.63272727269214,171.79792690876639 38.261818181723356,170.09957890209625 39.978181818150915,168.18892562022666 40.79272727260832,167.37512506608618 42.53818181809038,166.17211140834843 43.3818181817187,165.49983691747184 45.38909090904053,164.11990023194812 46.75636363623198,163.12917244716664 49.694545454578474,161.14770682089147 51.61454545450397,159.69698241335573 53.97090909082908,158.2108670306916 54.058181818109006,158.1047156433342 54.0,157.99856421738514 53.24363636353519,157.92779657873325 52.952727272640914,157.78626125023584 52.66181818174664,157.3262709598057 52.370909090852365,156.68936013392522 51.90545454539824,156.01706387026934 51.67272727272939,155.52168668806553 51.4109090907732,154.81400354538346 50.91636363626458,153.82324427206186 50.45090909092687,152.65555939570186 49.7818181818584,150.3909451494983 49.403636363567784,148.76324284038856 49.19999999983702,148.76324284038856 48.181818181765266,149.18786170645035 47.774545454536565,149.11709193818388 47.774545454536565,149.04632215280435 48.09454545448534,148.83401269410388 48.181818181765266,148.16169839253416 48.181818181765266,147.66630791925127 48.09454545448534,147.27707195930998 47.94909090909641,147.1001463519351 47.716363636311144,146.99399093620013 47.250909090740606,146.95860578899737 47.250909090740606,146.92322063754546 47.36727272719145,146.85245032198145 47.68727272725664,146.71090963928145 47.51272727258038,145.64935233833967 47.774545454536565,145.33088439743733 47.832727272761986,145.11857224436244 47.30909090908244,142.28772882459452 47.30909090908244,142.00464297717554 47.36727272719145,141.79232841188787 47.74545454536565,141.43847046108567 48.06545454543084,141.2615413251915 49.51999999990221,140.83691096294206 50.683636363595724,140.34150809512357 51.963636363623664,140.05842036590911 52.74909090914298,139.59840222180355 53.68000000005122,139.35069984482834 53.85454545461107,139.2091555351799 54.0,138.78452219607425 54.058181818109006,138.713749913004 55.2218181816861,138.1829572446877 58.91636363626458,137.08598268017522 60.807272727251984,136.44902782110148 64.41454545443412,135.38743330939906 65.51999999990221,134.92740782548208 66.1309090909781,134.7504747545754 67.49818181805313,134.11351481388556 70.20363636361435,133.19345911947312 70.37818181805778,133.05191183288116 70.43636363639962,132.9103644778661 70.29090909089427,132.2734005333623 70.31999999994878,131.95491804141784 70.43636363639962,131.77798317396082 70.98909090901725,131.49488716351334 71.10545454535168,131.31795201799832 71.45454545447137,130.3271132267837 71.45454545447137,130.07940300487098 71.33818181813695,129.93785421265056" stroke="#4DD2FF" stroke-linecap="round" stroke-linejoin="round" stroke-width="0.5"><title>2025-12-04 10.0km</title><desc>16645549870</desc></polyline><polyline fill="none" points="186.0,117.555055146222 185.7545803153189,117.89092062597047 184.8649339582771,118.48801390986773 184.77290157647803,118.71192359350971 184.8956114188768,119.19706068435335 185.87729015760124,121.51078093599062 185.9693225394003,121.80932422139449 185.93864507891703,122.10786721800105 185.7545803153189,122.25713860805263 183.7298679164378,123.11544770002365 183.4844482317567,123.3020363173564 183.39241585007403,123.45130712990067 183.4844482317567,123.97375440559699 183.453770771157,124.34693048970075 183.66851299535483,124.98132879741024 183.91393268015236,125.91426511667669 184.06731998291798,126.69792944609071 184.09799744363409,127.18305398634402 183.94461014051922,127.36964014498517 182.77886663831305,127.66817776416428 181.85854282067157,127.96671509486623 181.09160630591214,128.41452054929687 180.96889646351337,128.63842303288402 181.06092884542886,129.04891049780417 181.55176821479108,130.2057358713937 182.0426075840369,131.69840736725018 182.073285044753,131.99694080039626 182.0426075840369,132.25815731741022 181.70515551778954,132.55669020925416 180.38602471235208,132.967172464123 178.913506604149,133.67618598244735 177.44098849594593,134.16129955658107 175.44695355778094,135.05689184484072 174.1585002130596,135.50468701464706 173.69833830429707,135.7659005637106 173.5756284617819,135.8778491600242 173.48359608021565,136.13906239334028 173.36088623781689,136.6614881969872 173.33020877710078,136.9600168307661 173.79037068609614,138.19144439362572 173.821048146463,138.45265566935996 173.606305922498,138.56460329139372 172.56327226245776,138.82581425143871 171.98040051141288,139.12434079236118 171.98040051141288,139.38555127885775 172.34853003837634,140.5050222890277 172.31785257789306,140.61696916687652 171.18278653605375,140.91549397574272 170.446527481894,141.21401849589893 168.42181508301292,141.88569761122926 166.42778014484793,142.1842211933399 163.85087345552165,142.74395213183016 163.36003408604302,142.89321354407002 161.36599914787803,143.30368205546984 156.3962505327072,144.57239945899346 153.8500213038642,144.98286573801306 151.39582445682026,145.43064651085297 150.81295270554256,145.6545366536884 150.65956540266052,145.9157416152011 150.65956540266052,146.10231645245221 150.81295270554256,146.92324439663207 150.81295270554256,146.624725396774 150.69024286337662,145.99037156370468 150.69024286337662,146.51278069749242 150.75159778434318,146.8859295375005 151.15040477213915,147.6695406336512 151.45717937790323,148.4158350666985 151.8253089049831,150.50544988244656 152.1320835108636,151.17710878385697 152.56156795925926,151.96070898903417 153.35918193438556,154.05029981330154 154.0340860672295,155.356286897033 154.77034512150567,156.92346410584287 154.9850873455871,157.25928675854811 155.13847464846913,157.37122756167082 155.90541116322856,157.48316832413548 157.10183212603442,157.44585474117775 158.6357051555533,157.0354050306487 159.61738389439415,156.92346410584287 160.66041755431797,157.07271866314113 162.5317426502006,157.59510904597118 163.08393694076221,157.63242261100095 164.92458457604516,157.25928675854811 168.72858968900982,156.3264451547293 170.446527481894,156.13987649578485 172.6859821047401,155.69211125434958 172.90072432893794,155.54285602949676 172.93140178965405,155.4309145634761 172.9620792500209,154.79657882329775 172.50191734125838,153.1174485142401 172.07243289309554,151.40099475972238 171.3361738389358,149.4979587904818 171.3054963783361,149.27407143465825 171.36685129953548,149.16212769577396 171.5815935236169,149.34870057128137 171.64294844469987,149.4979587904818 172.56327226245776,152.40847964186105 173.33020877710078,155.39360073255375 173.2688538560178,155.69211125434958 173.17682147421874,155.80405262554996 172.7166595653398,156.0279352462967 164.2190029824851,157.63242261100095 162.68512995319907,157.9682444925711 162.22496804432012,157.9682444925711 161.85683851724025,157.9309309681703 161.02854708139785,157.6697361714032 159.83212611835916,157.22197314852383 159.09586706443224,157.1100322913844 156.94844482315239,157.8189903680759 155.8133787814295,158.08018503861967 155.38389433315024,158.26675252514542 154.7089902004227,158.67720059875865 152.86834256490692,160.02048138843384 147.9292714104522,163.52790923320572 146.2420110780513,164.64729271191754 142.34597358328756,167.44573365504039 141.42564976564609,168.3412294005102 140.35193864500616,169.64715604076628 139.49296974856406,170.50533339721733 138.35790370684117,171.77393903356278 136.21048146567773,174.04995372972917 135.9650617808802,174.16188844590215 135.7503195569152,174.16188844590215 134.6152535151923,173.97533056305838 134.36983383039478,173.8633957792481 131.42479761398863,169.94565278294613 131.1793779291911,169.68446814923664 130.99531316570938,169.72178025334142 130.41244141454808,170.24414923682343 128.72518108214717,171.43813216630952 125.6267575629754,173.8260841757001 124.76778866641689,174.423069292563 123.72475500637665,175.31854480406037 122.49765658273827,176.1767063991574 121.88410737097729,176.699064463377 120.87175117165316,177.40797756583197 116.30080954404548,180.98982940940186 115.90200255648233,181.21369377020164 114.95100127824116,181.5494900070189 114.30677460588049,182.29570255955332 114.12270984228235,182.4449448538071 114.0,182.40763428699574 114.0,182.14646019341308 115.01235619944055,181.1390723346267 115.9940349382814,180.69134334250703 116.42351938644424,180.39285698725143 117.9573924158467,179.19890868087532 118.93907115468755,178.527310729929 120.56497656577267,177.18411044607637 121.70004260761198,176.36326295210165 123.0805283341324,175.1692990657757 126.05624201102182,173.30372125151916 127.89688964630477,171.73662717739353 128.90924584586173,171.06501299678348 130.32040903286543,169.90834070599522 130.96463570510969,169.5352196879976 131.30208777170628,169.5352196879976 131.5475074563874,169.64715604076628 134.3084789091954,173.30372125151916 134.73796335759107,173.71414933769847 135.1060928844381,173.8633957792481 135.84235193871427,173.8633957792481 136.08777162339538,173.8260841757001 137.7443544950802,172.22168095497182 138.41925862792414,171.43813216630952 139.03280783968512,170.87845324297086 139.4009373668814,170.43070937381708 140.38261610572226,169.42328329462907 141.9164891350083,167.6696078349196 142.59139326796867,167.07260966135073 150.414145717863,161.55032183678122 154.6476352791069,158.49063336019753 155.7520238602301,157.8936174393748 158.0221559436759,156.99809139364515 158.48231785267126,156.6622684567701 158.8811248402344,156.13987649578485 158.9118023008341,155.76673883970943 158.6050276949536,154.7592649156868 158.3596080102725,154.46075349202147 158.3596080102725,154.19955575963832 158.0835108649917,153.00550616893452 157.99147848319262,151.77413769203122 157.8074137197109,151.40099475972238 157.59267149551306,151.2890517921478 157.13250958663411,151.32636611914495 154.5862803577911,152.52042220367002 153.72731146134902,152.78162135658204 152.80698764382396,152.893563783 152.53089049854316,152.70699304970913 152.22411589266267,152.18459439656 151.70259906270076,150.9905370134511 151.5185342989862,150.39350659007323 151.2424371538218,149.1248131072207 151.11972731142305,148.005373351858 151.21175969322212,147.74417015819927 151.5492117597023,147.40833715588087 152.960374946706,146.77398493283545 152.19343843206298,147.10981862508925 152.04005112918094,147.33370755030774 152.00937366858125,147.59491109120427 151.73327652318403,147.52028153062565 151.3037920750212,147.2590779266029 151.08904985093977,147.0351889472804 150.87430762674194,146.69935517385602 150.75159778434318,146.28889117692597 150.65956540266052,145.57990662415978 150.1380485726986,143.9753566243744 149.76991904561874,142.6693213986291 149.40178951853886,141.5871737403795 149.06433745205868,140.91549397574272 148.94162760977633,140.5050222890277 148.88027268846054,139.9826029894466 149.15636983385775,139.04970918409526 149.40178951853886,138.7511825711117 150.04601619089954,138.11681255995063 151.3037920750212,137.0719649939856 151.67192160210107,136.84806862697587 154.18747337022796,135.9151653496956 155.07711972738616,135.43005453152 156.42692799319047,134.94494295094046 157.7767362591112,134.1986159539083 159.31060928839725,133.67618598244735 162.22496804432012,132.55669020925416 164.52577758848201,131.54914054242545 164.95526203664485,131.17597316461615 165.23135918204207,130.72817171600764 165.47677886672318,130.57890442191274 165.63016616960522,130.54158758721314 165.6608436302049,130.50427074800245 165.20068172132596,129.57134830005816 164.77119727316312,128.4518376411579 164.74051981244702,128.19061790322303 164.8018747336464,128.07866651925724 165.01661695784424,127.85476362964255 168.7899446102092,126.02621728554368 170.96804431185592,125.05596380672068 171.3361738389358,124.7947411952191 171.48956114181783,124.60815348016331 172.01107797189616,124.49620079706074 172.65530464425683,124.12302489331341" stroke="#4DD2FF" stroke-linecap="round" stroke-linejoin="round" stroke-width="0.5"><title>2025-11-30 10.0km</title><desc>16605669845</desc></polyline><polyline fill="none" points="80.90509926446248,195.76967047646758 79.00080559996422,196.38100845142617 77.28165159723721,197.05669615822262 75.40380645578261,197.8610840482288 73.20857903698925,198.69764487456996 73.07633642130531,198.76199559835368 72.99699085205793,198.9228723399865 73.02343937510159,199.82378029538086 73.28792460623663,200.66033495153533 73.97558620735072,202.39778621905134 74.31941700796597,203.55608076191857 74.79549042414874,204.93959263633587 75.1922182708513,205.64743313955842 75.61539464083035,206.74136475945124 76.43529885739554,208.57529885723488 76.67333556548692,209.34747785449144 76.64688704244327,209.5726963065681 76.46174738078844,209.7013924792991 74.92773303959984,210.08748062417726 73.71110097621568,210.34487240968156 73.20857903698925,210.57009001765982 71.91260140412487,211.0526985359902 71.3571824185783,211.31008938796003 70.48438115569297,211.85704412168707 69.84961660078261,212.146607937495 69.61157989269122,212.43617143807933 69.45288875408005,212.53269253502367 68.13046259817202,213.01529749424662 67.04607315023895,213.33703364763642 65.61785290180705,213.9805047874397 64.26897822273895,214.62397437149775 62.25889046571683,215.78221570217283 60.43394237046596,216.7474129605689 59.270207353285514,217.5195682469639 58.68833984457888,218.0343371933559 57.974229720421135,218.54910514416406 56.78404617996421,219.09604500085698 54.006951252464205,220.2542668696551 53.901157160056755,220.3829578772129 53.901157160056755,220.51164882263402 54.350782053079456,221.34813845093595 54.64171580749098,221.57334674784215 55.03844365407713,221.54117414567736 54.69461285369471,221.57334674784215 54.4036790993996,221.47682892958983 54.90620103850961,221.47682892958983 54.66816433041822,221.57334674784215 54.588818761054426,221.54117414567736 55.01199513114989,221.50900153955445 54.7739584230585,221.66986453099526 54.5359217148507,222.12028038973222 54.69461285369471,222.08810785369133 54.64171580749098,222.18462545028888 53.92760568310041,222.7959027487086 52.81676771224011,223.4393510198861 51.36209894064814,224.46886501819245 50.88602552446537,224.75841511267936 49.431356752989814,225.46620290647843 49.21976856794208,225.91661234083585 49.19332004489843,226.27050493305433 49.27266561426222,226.88177284778794 49.880981646012515,228.97294193971902 50.198363923467696,230.51717933861073 50.99181961698923,232.7370049035817 51.07116518635303,233.38042914291145 51.28275337128434,234.18470725489897 51.67948121810332,235.31069252901943 51.732378264307044,235.9541105471144 51.83817235683091,236.6618685706926 51.97041497239843,237.2731126221188 52.15555463428609,238.39908483196632 52.340694296057336,238.88164289243286 52.76387066591997,239.6215635528788 53.345738174626604,241.06922846159432 54.69461285369471,243.93236476453603 54.90620103850961,244.25406354828738 55.250031839241274,244.4149127943383 55.9641419632826,244.47925246556406 56.75759765692055,244.38274295296287 58.02712676662486,244.0288744403806 58.66189132141881,243.99670455235173 60.72487612476107,244.51142229541438 61.597677387762815,244.64010157555458 63.07879468228202,244.44708263195935 64.18963265337516,244.09321420500055 64.90374277764931,243.93236476453603 67.09897019632626,243.54632571089314 68.63298453728203,243.38547593989642 69.98185921635013,243.06377610648633 70.21989592444152,242.90292604401475 70.3785870631691,242.67773579322966 70.43148410937283,242.48471542657353 70.43148410937283,242.25952482200228 69.63802841596771,239.39637052614125 69.02971238421742,237.56264878815273 69.02971238421742,237.40179540141253 69.10905795358121,237.36962471244624 69.18840352294501,237.40179540141253 69.24130056903232,237.5304781185696 69.61157989269122,238.59210816115956 70.48438115569297,241.5196114941209 70.59017524810042,242.06650415214244 70.61662377137691,242.48471542657353 70.56372672505677,242.7099058406602 70.3785870631691,242.99943609314505 70.11410183203407,243.19245608648635 69.7967195546953,243.3211360043788 68.31560225982685,243.54632571089314 64.03094151464757,244.44708263195935 61.62412591080647,244.8652901662863 61.28029511019122,244.89745994948316 60.96291283285245,244.833120379335 60.01076600048691,244.60793176139123 58.87347950646654,244.18972382263746 58.60899427521508,244.15755395399174 57.498156304238364,244.44708263195935 56.28152424073778,244.833120379335 55.46162002417259,245.05830880679423 54.93264956178609,245.3478365050396 53.31928965135012,246.5381137340446 52.65807657351252,246.92414844912128 48.029585027717985,250.26975919742836 43.85071837482974,253.1971341119206 42.84567449626047,254.258701677114 42.55474074196536,254.64472519682022 41.12652049364988,256.1566452594707 39.98923399951309,257.50771549748606 39.01063864410389,258.5049296084908 38.71970488980878,258.73010647142655 38.50811670476105,258.79444268293446 38.190734427422285,258.79444268293446 37.39727873378433,258.6979383598664 37.15924202569295,258.56926587445196 34.725977898808196,255.32026500930078 34.43504414439667,255.03074815680156 34.276353005785495,254.99857959811925 32.18691967939958,256.6713394919352 29.11889099748805,258.92311505955877 28.48412644281052,259.4378039435833 27.479082564241253,260.20983540421 27.02945767121855,260.4993466247397 26.394693116191775,261.0462002934946 25.389649237855338,261.7217238628655 24.27881126664579,262.7189221899025 23.406010003876872,263.2979388592357 21.87199566292111,264.55247065637377 21.395922246738337,264.80980978158186 20.417326891445555,265.1958180030051 19.88835642905906,265.7426620252663 19.597422674763948,265.96783276676433 19.332937443512492,266.0 19.121349258581176,265.90349828870967 19.094900735421106,265.7426620252663 19.597422674763948,265.4853238016949 20.33798132208176,264.80980978158186 22.877039541490376,263.3622739670682 23.829186373623088,262.5259163535957 24.70198763674125,262.01123343931977 26.13020788517315,260.8210253895086 26.73852391692344,260.40284291954595 27.92870745714754,259.40563591755927 29.85944964492228,258.11891168597504 31.155427277670242,257.15386443119496 31.525706601445563,256.80001289458596 32.29271377180703,256.3174873140524 33.35065469658002,255.38460204500007 34.091213343897834,254.9342424692004 34.46149266755674,254.83773674676195 34.673080852488056,254.9342424692004 35.01691165310331,255.41677055697073 35.94260996230878,256.57483439915814 36.89475679455791,257.925902514864 37.31793316442054,258.3440888754267 37.5030728263082,258.47276146968943 37.76755805744324,258.5370977433922 38.42877113551367,258.56926587445196 38.693256366532296,258.5049296084908 39.56605762965046,257.7007249717135 41.04717492428608,255.9636346657062 43.37464495864697,253.45448421343463 44.062306559761055,252.81110849324614 44.644174068351276,252.3607445639791 48.92883481364697,249.43336045212345 50.09256983094383,248.53262040307163 51.83817235683091,247.4066910558031 52.73742214287631,246.698961600021 53.31928965135012,246.3772657708032 55.779002301511355,244.60793176139123 55.831899347831495,244.51142229541438 55.779002301511355,244.47925246556406 55.17068626987748,244.44708263195935 54.9855466078734,244.38274295296287 54.72106137685478,244.1253840813879 54.37723057612311,243.5141557645111 53.821811590809375,242.7099058406602 53.477980790194124,241.61612204488483 52.84321623540018,240.39365248396643 52.340694296057336,239.17117730891914 52.023312018602155,238.07737897225888 51.917517926194705,237.2731126221188 51.626584171899594,236.050623115676 51.600135648739524,235.63240173249505 51.36209894064814,234.60293091274798 50.96537109382916,233.28391560626915 50.59509177017026,231.6753515083401 50.40995210839901,231.09626605338417 49.96032721537631,230.22763550872332 49.80163607664872,229.64854690409265 49.722290507284924,229.1659721044707 49.90743016905617,228.55470943564433 50.039672784740105,228.39385060523637 50.568643247010186,227.87910169470706 52.023312018602155,226.6887410263589 53.29284112842288,226.10964472216438 53.98050272942055,225.85226818258525 55.27648036216851,225.20882574471761 56.4137668563053,224.75841511267936 57.41881073487457,224.2758314467792 58.34450904408004,224.01845313390368 59.508244061260484,223.5680404874729 61.148052494740114,222.86024764575996 61.30674363335129,222.73155783602851 61.33319215651136,222.53852300465223 60.96291283285245,221.4446563158126 60.85711874032859,220.73685782728717 60.91001578664873,220.06123024152475 61.06870692537632,219.80384785297792 62.70851535873953,218.93518045390374 63.23748582112603,218.74214286904316 65.59140437864698,217.68043364971527 66.27906597964466,217.48739515480702 66.51710268785246,217.3265296354366 66.51710268785246,217.197837149899 66.19972041028086,216.84393249388086 65.67074994801078,215.81438900047215 65.03598539321683,214.23789280772326 64.71860311576165,213.2083392329223 64.11028708401136,212.1144341956824 63.66066219098866,211.18139399311622 63.23748582112603,209.86226260772673 63.23748582112603,209.7013924792991 63.290382867329754,209.60487035557162 63.449074006057344,209.41182600302272 63.554868098464794,209.12225921166828 63.766456283512525,208.92921450911672 64.50701493083034,208.57529885723488 65.7236469942145,208.15703429837595 66.30551450292114,207.8674661417026 66.43775711848866,207.73876908206148 66.43775711848866,207.51354907784844 66.19972041028086,206.9665854171035 66.14682336419355,206.80571353825508 65.90878665610217,206.38744619803037 65.88233813305851,206.0978761158476 65.11533096258063,204.6178463307151 64.8243972081691,204.13522614270914 64.71860311576165,203.7813041153422 64.93019130069297,203.55608076191857 66.09392631798983,202.9125844160444 67.20476428896654,202.20473663837765 69.55868284660392,200.56380954847555 69.63802841596771,200.43510895667714 69.66447693901137,200.3385834718647 69.45288875408005,199.3733266989293 69.45288875408005,199.18027492411784 69.53223432332743,199.0193983381905 69.8760651240591,198.69764487456996 70.35213854012545,198.47241721852333 71.56877060350962,198.21501394957886 71.99194697348867,198.05413678006153 73.42016722203698,196.92799387016566 75.29801236337516,195.80184619434294 76.91137227357831,194.96527626432362 78.28669547580648,194.09652778398595 78.52473218389787,194.0 78.73632036882918,194.0 78.97435707692057,194.25740734612918" stroke="#4DD2FF" stroke-linecap="round" stroke-linejoin="round" stroke-width="0.5"><title>2025-11-26 10.0km</title><desc>16570876727</desc></polyline><polyline fill="none" points="180.6790710822679,194.13176486024167 181.0581593393581,194.790588205331 181.59971399221104,195.87764324148884 182.0600354471244,197.09645736648235 182.5745123672532,198.74349481836543 182.76405649562366,199.13878232520074 183.30561114859302,200.09405809891177 183.4139220790239,200.48934364604065 183.38684434641618,200.7199266171665 183.27853341586888,200.75286702570156 180.70614881487563,201.04933052303386 180.40829375584144,201.14815161708975 180.29998282541055,201.24697267531883 180.32706055801827,201.44461468429654 180.40829375584144,201.60931624885416 180.97692614141852,202.33400195025024 181.2747812004527,202.8281047323544 181.51848079427145,203.38808680212242 181.76218038797379,204.14570777048357 182.30373504082672,205.10096598844393 182.43912370409817,205.62800357167725 182.41204597137403,205.8585821937304 182.14126864494756,206.08916062061326 182.00587998179253,206.45149775437312 181.9788022491848,206.5832565925666 182.0871131797321,206.91265340943937 181.95172451646067,207.04441202469752 181.49140306154732,207.2749894480512 181.3560143983923,207.43968748807674 181.3560143983923,207.6702645768819 181.7892581205815,208.26317619506153 181.7892581205815,208.42787363770185 181.65386945742648,208.59257098086528 181.3560143983923,208.82314709402272 179.86673910310492,209.81132822600193 179.70427270722575,210.00896402224316 179.7313504399499,210.23953893675935 180.6790710822679,212.51233836702886 180.7603042802075,212.8746669589891 180.6790710822679,213.0723005332984 180.32706055801827,213.26993396418402 178.10668648139108,213.9945886511705 177.15896583895665,214.48867028724635 176.04877880075946,214.94981233929866 174.64073670341168,215.37801497452892 173.44931646704208,215.87209410217474 172.9348395470297,216.135602603812 171.5267974495655,217.024941915588 170.33537721342873,217.51901805668604 168.6836355222622,218.30953801920987 167.92545900843106,218.60598241371918 163.56594405311625,220.5822701358993 163.21393352886662,220.68108414570452 162.50991248013452,220.77989811977022 162.13082422316074,221.20809159308556 161.80589143140242,221.43865703075426 159.3688954936806,222.5914812927076 158.06916432711296,223.11848504527006 156.87774409074336,223.480799533776 152.49115140293725,225.1935524129076 151.05603157298174,225.81936327953008 150.56863238546066,226.14873684261693 150.46032145479694,226.3463607892627 150.48739918752108,226.87335727992468 150.7040210486157,227.72972440329613 150.67694331589155,228.09203276073094 150.46032145479694,228.2567182185012 150.05415546521544,228.42140357673634 148.67319110047538,228.81664803050808 148.45656923938077,228.94839605427114 148.3753360414412,229.11308099448797 148.40241377416532,229.40951363611384 148.83565749635454,230.85873524210183 149.32305668399204,232.27501254706294 149.51260081247892,233.19723567238543 149.86461133661214,234.3829465333256 149.918766801944,234.77818234049482 150.02707773260772,235.008736296586 150.1353886630386,236.4579281260376 150.37908825685736,237.57775289771962 150.64986558328383,238.26940707553877 151.27265343419276,239.29041717748623 151.81420808692928,240.90426405289327 153.11393925372977,243.67083646252286 153.3576388474321,244.00018845006707 153.547182975919,244.09899396880064 154.22412629204337,244.16486429458018 155.22600239957683,244.09899396880064 156.47157810127828,243.73670689182472 157.17559914977755,243.604966017243 157.8254647332942,243.73670689182472 159.7479837507708,244.36247517669108 160.01876107719727,244.42834543890785 160.4520047995029,244.39541030972032 160.83109305636026,244.36247517669108 162.13082422316074,243.96725326916203 164.16165417130105,243.57203078860766 164.83859748730902,243.34148407689645 167.81714807776734,242.88039006839972 168.5753245917149,242.748648779816 168.7919464528095,242.682778111659 169.00856831402052,242.51810137162101 169.1168792444514,242.3204891521018 169.1710347098997,241.79352253311663 169.00856831402052,241.00307069404516 168.6565577897709,239.94913134220405 168.22331406746525,238.3682146719657 167.79007034527604,237.3472011150152 167.79007034527604,237.05077710776823 167.81714807776734,236.98490506238886 167.89838127570692,236.95196903374745 168.11500313680153,237.18252115079667 169.3064233730547,241.62884525570553 169.3876565709943,242.28755376831396 169.1710347098997,242.6498427716433 169.00856831402052,242.8145194320823 168.6565577897709,242.91332538059214 165.51554080331698,243.47322507889476 164.13457643857691,243.76964210049482 162.72653434122913,244.00018845006707 161.31849224388134,244.36247517669108 160.39784933405463,244.52715080228518 159.88337241392583,244.5600859155238 159.20642909791786,244.42834543890785 157.8254647332942,243.96725326916203 157.17559914977755,243.83551250604796 155.7946347851539,244.19779945159098 153.9533489656169,244.79063159634825 152.4640736702131,245.81161726723076 150.18954412837047,247.29368643509224 149.26890121866018,247.98531595541863 148.61903563525993,248.38053203606978 147.18391580542084,249.4673733029049 143.04102271108422,252.33266132266726 141.9849911382189,253.12308030301938 141.01019276306033,254.1111008049047 140.00831665541045,255.23085304396227 138.68150775600225,256.5152690651594 137.1109992627753,258.2936812560365 136.6236000751378,258.6888823892514 136.35282274882775,258.75474918910186 136.13620088761672,258.721815791243 135.54049076966476,258.59008215970243 135.32386890845373,258.4912818942976 134.7823142556008,257.66794495642534 134.34907053341158,257.2068751849001 133.0493393667275,255.3955221029173 132.61609564442188,254.96738234275836 132.3453183179954,255.00031619434594 128.93352400511503,257.47034372133203 128.33781388704665,257.99728002995835 127.20054911612533,258.787682583119 126.22575074108317,259.5451495455054 124.81770864373539,260.53314676793525 123.5179774769349,261.52114040905144 122.05577991425525,262.47619752478204 119.34800665010698,264.6826959953178 118.88768519531004,264.9790899513464 117.99412001820747,265.3084161913139 117.15471030620392,266.0 116.77562204934657,266.0 116.61315565358382,265.93413495091954 116.58607792085968,265.90120242052944 116.66731111879926,265.80240480511566 117.26302123675123,265.7365397083049 117.69626495905686,265.4401465758856 118.29197507724166,265.1766857430048 120.13326089677867,263.99110884428956 120.99974834138993,263.23365423688665 123.76167707075365,261.2247426927497 125.11556370276958,260.00621536170365 127.39009324461222,258.524215320067 128.4732025503181,257.733812002989 129.25845679675695,257.0751408211945 130.55818796367384,256.15299849244184 131.39759767544456,255.4284559027583 132.2370073873317,254.9015146275924 132.39947378321085,254.86858076415956 132.50778471387457,254.9015146275924 132.69732884224504,255.06618388555944 133.80751588055864,256.4164680476242 134.5656923945062,257.437410168146 135.4863353043329,258.4583484645118 135.67587943270337,258.59008215970243 135.8112680959748,258.6230155735102 136.43405594676733,258.65594898338895 136.75898873852566,258.59008215970243 140.3603271796601,254.76977914970485 141.2809700894868,253.71589303395012 142.06622433615848,252.8925416705606 144.7198421349749,251.0152912614285 147.3463822011836,249.23683157819323 152.76192872936372,245.35052743792767 153.81796030234545,244.5930210246879 154.3595149551984,244.2966048985836 154.30535948986653,244.23073460452724 153.57426070864312,244.09899396880064 153.27640564949252,243.96725326916203 152.19329634390306,242.12287678944995 151.841285819537,241.13481282640714 151.24557570146862,239.81738863652572 150.9206429097103,238.99399528381764 150.54155465273652,237.742432623083 150.3249327916419,237.01784108704305 150.18954412837047,236.09563089115545 149.99999999988358,235.3710349764733 149.56675627781078,234.3829465333256 149.53967854508664,233.9218373670592 149.5938340104185,233.6912824913743 149.918766801944,233.49366387131158 151.02895384037402,233.23017215484288 153.81796030234545,232.70318795766798 154.6844477468403,232.47263205097988 156.498655833886,232.17620274142246 157.6359206046909,231.97858302257373 159.99168334458955,231.31984959138208 160.1541497403523,231.3527863007912 160.12707200774457,231.41865970761864 159.9646056118654,231.4515964051243 159.8562946812017,231.38572300615488 159.58551735489164,230.29880962625612 159.5313618896762,230.1999991039047 159.39597322628833,230.1341254025756 159.61259508749936,230.00237795192515 160.42492706677876,229.83769354913966 160.5603157299338,229.73888285973226 160.5603157299338,229.67300904693548 159.91045014653355,228.71783697075443 159.80213921598624,228.3884665130754 159.3418177610729,227.43328993438627 159.0439627021551,225.75348851914168 159.0439627021551,225.55586414242862 159.09811816737056,225.39117705237004 159.3418177610729,225.25942730874522 160.7498598585371,224.73242769681383 161.5892695703078,224.33717731907382 164.29704283445608,223.5796124925837 167.2485156924231,222.82204555990756 167.5734484839486,222.65735681750812 167.62760394928046,222.45973019531812 167.5463707514573,222.1303521731752 167.2755934249144,221.60334650962614 166.51741691096686,220.45051806699485 166.3549505150877,220.12113761616638 166.3278727825964,219.92350915446877 166.40910598030314,219.8246948699525 166.67988330684602,219.62706619335222 167.4651375535177,219.3306229095033 168.2774695327971,218.86948827159358 168.73779098759405,218.54010590957478 168.92733511608094,218.14484654946136 169.06272377923597,218.0130933019973 169.84797802590765,217.65077154315077 170.9040095988894,216.99200347435544 170.98524279682897,216.7614342739107 170.8227764009498,216.1026640550699 170.79569866834208,215.47683087174664 170.9040095988894,214.81805754697416 171.09355372737627,214.19222141319187 171.4455642516259,213.76401691441424 172.47451809211634,212.9405448329635 173.043150477577,212.38058239608654 173.3410055366112,212.21588734266697 173.12438367551658,210.99714085340383 172.52867355733179,209.41605620327755 172.39328489417676,208.92196536855772 171.47264198435005,206.2209196340409 171.25602012313902,205.69388319781865 170.95816506410483,205.06802610561135 170.9040095988894,204.57392738587805 170.57907680724747,203.5857272577705 169.3876565709943,201.21403232659213 168.76486872020178,199.66583144213655 168.38578046334442,199.1058417215827 168.2774695327971,198.08468103245832 168.2774695327971,197.95291808416368 168.5753245917149,197.52468806187971 169.0898015119601,197.03057566127973 169.3064233730547,196.8988122031733 171.0123205294367,196.30587585270405 172.25789623090532,195.48235100295278 173.7742492588004,194.75764707598137 175.10105815832503,194.0" stroke="#4DD2FF" stroke-linecap="round" stroke-linejoin="round" stroke-width="0.5"><title>2025-11-20 10.0km</title><desc>16570876284</desc></polyline></svg>