<?xml version="1.0" encoding="utf-8" ?>
<svg baseProfile="full" height="200mm" version="1.1" viewBox="0,0,200,200" width="200mm" xmlns="http://www.w3.org/2000/svg" xmlns:ev="http://www.w3.org/2001/xml-events" xmlns:xlink="http://www.w3.org/1999/xlink"><defs /><rect fill="#1a1a1a" height="200" width="200" x="0" y="0" /><rect fill="#1a1a1a" height="200" width="180" x="10" y="0" /><text alignment-baseline="middle" fill="#e1ed5e" style="dominant-baseline: central; font-size:9.0px; font-family:Arial;" text-anchor="middle" x="100.0" y="100.0">2025</text><line stroke="#e1ed5e" stroke-width="0.3" x1="100.0" x2="100.0" y1="15.0" y2="10.0" /><path d="M 100.0 14.0 a86.0,86.0 0 0,1 42.46469731375804,11.215312516191453" fill="none" id="id1" stroke="none" /><text fill="#e1ed5e" style="font-size:6.75px; font-family:Arial;" text-anchor="middle"><textPath startOffset="22.20632615414155" xlink:href="#id1">January</textPath></text><line stroke="#e1ed5e" stroke-width="0.3" x1="143.23703022742887" x2="145.7803849466894" y1="26.81831364943548" y2="22.513508569990506" /><path d="M 143.74570117128098 25.957352633546492 a86.0,86.0 0 0,1 28.547481713284135,27.462654790039103" fill="none" id="id2" stroke="none" /><text fill="#e1ed5e" style="font-size:6.75px; font-family:Arial;" text-anchor="middle"><textPath startOffset="19.985693538727396" xlink:href="#id2">February</textPath></text><line stroke="#e1ed5e" stroke-width="0.3" x1="172.23445277983987" x2="176.4835382374775" y1="55.19839476539836" y2="52.563006222186495" /><path d="M 173.08426987136738 54.67131705675599 a86.0,86.0 0 0,1 12.851231095245387,41.99856678651699" fill="none" id="id3" stroke="none" /><text fill="#e1ed5e" style="font-size:6.75px; font-family:Arial;" text-anchor="middle"><textPath startOffset="22.20632615414155" xlink:href="#id3">March</textPath></text><line stroke="#e1ed5e" stroke-width="0.3" x1="184.98032266829074" x2="189.97916517819016" y1="98.17113171792111" y2="98.06355123074" /><path d="M 185.9800911702706 98.14961562048488 a86.0,86.0 0 0,1 -9.607161424134198,41.387399972396054" fill="none" id="id4" stroke="none" /><text fill="#e1ed5e" style="font-size:6.75px; font-family:Arial;" text-anchor="middle"><textPath startOffset="21.466115282336823" xlink:href="#id4">April</textPath></text><line stroke="#e1ed5e" stroke-width="0.3" x1="174.80103733775053" x2="179.2010983576182" y1="140.37084112569926" y2="142.7455964860345" /><path d="M 175.68104954172406 140.8457921977663 a86.0,86.0 0 0,1 -30.038265399797805,32.042727171017184" fill="none" id="id5" stroke="none" /><text fill="#e1ed5e" style="font-size:6.75px; font-family:Arial;" text-anchor="middle"><textPath startOffset="22.206326154141568" xlink:href="#id5">May</textPath></text><line stroke="#e1ed5e" stroke-width="0.3" x1="143.8653032363475" x2="146.44561519142675" y1="172.8068346515853" y2="177.08958963109032" /><path d="M 144.38136562736335 173.6633856474863 a86.0,86.0 0 0,1 -40.68145358897372,12.25698825130547" fill="none" id="id6" stroke="none" /><text fill="#e1ed5e" style="font-size:6.75px; font-family:Arial;" text-anchor="middle"><textPath startOffset="21.466115282336833" xlink:href="#id6">June</textPath></text><line stroke="#e1ed5e" stroke-width="0.3" x1="102.19456741930631" x2="102.32365962044197" y1="184.97166512339345" y2="189.96999836594603" /><path d="M 102.22038585953345 185.97133177190398 a86.0,86.0 0 0,1 -42.740103519485714,-10.115201625700543" fill="none" id="id7" stroke="none" /><text fill="#e1ed5e" style="font-size:6.75px; font-family:Arial;" text-anchor="middle"><textPath startOffset="22.20632615414155" xlink:href="#id7">July</textPath></text><line stroke="#e1ed5e" stroke-width="0.3" x1="58.666819895761336" x2="56.23545636021788" y1="174.27360380694188" y2="178.64263932499728" /><path d="M 58.180547188652646 175.14741091055294 a86.0,86.0 0 0,1 -31.652253787137756,-30.449443065178592" fill="none" id="id8" stroke="none" /><text fill="#e1ed5e" style="font-size:6.75px; font-family:Arial;" text-anchor="middle"><textPath startOffset="22.20632615414155" xlink:href="#id8">August</textPath></text><line stroke="#e1ed5e" stroke-width="0.3" x1="26.63291911575756" x2="22.317208475507996" y1="142.92168965132927" y2="145.44649492493687" /><path d="M 25.769776987707644 143.4266507060508 a86.0,86.0 0 0,1 -11.730757126820373,-40.83630448921669" fill="none" id="id9" stroke="none" /><text fill="#e1ed5e" style="font-size:6.75px; font-family:Arial;" text-anchor="middle"><textPath startOffset="21.46611528233685" xlink:href="#id9">September</textPath></text><line stroke="#e1ed5e" stroke-width="0.3" x1="15.007084014347285" x2="10.007500721073583" y1="101.09737516637583" y2="101.16192664675087" /><path d="M 14.007167355692545 101.11028546245083 a86.0,86.0 0 0,1 10.666146001902534,-42.60595125391555" fill="none" id="id10" stroke="none" /><text fill="#e1ed5e" style="font-size:6.75px; font-family:Arial;" text-anchor="middle"><textPath startOffset="22.20632615414155" xlink:href="#id10">October</textPath></text><path d="M 79.3925641242962 95.95851677861259 l -12.973996818327969 -2.544430601258166 a34.22114671753563,34.22114671753563 0 0,0 0.11834113186779571,-0.5770733869849162 l 12.928276390545177 2.767379644406485" fill="red" stroke="none" /><path d="M 79.62865764111835 94.90015583598534 l -13.311023732146868 -3.3323354691868454 a34.72180062808733,34.72180062808733 0 0,0 0.15013651719515217,-0.5785372452927363 l 13.251690883081407 3.5609691400284453" fill="red" stroke="none" /><path d="M 80.38941819471856 92.48833698450439 l -14.869782830121101 -5.695741148454388 a36.9233133689305,36.9233133689305 0 0,0 0.23245238986248562,-0.5915659774058204 l 14.769536890376925 5.950856130755972" fill="red" stroke="none" /><path d="M 80.52162464483688 92.15188598940014 l -24.474731884785175 -9.861217001331827 a47.38666522278774,47.38666522278774 0 0,0 0.3113491491204113,-0.7539566605880519 l 24.301361048778563 10.281048232373191" fill="red" stroke="none" /><path d="M 81.10775173730289 90.83032412892265 l -18.974554741337897 -9.209624728446315 a42.091489166743024,42.091489166743024 0 0,0 0.3219798225960555,-0.6490916748785507 l 18.813214905788428 9.534875991823828" fill="red" stroke="none" /><line stroke="#e1ed5e" stroke-width="0.3" x1="26.266209847984243" x2="21.928928074336255" y1="57.711370442889674" y2="55.22380399835377" /><path d="M 25.398753493254645 57.213857153982495 a86.0,86.0 0 0,1 29.58750427330803,-30.492523968695096" fill="none" id="id11" stroke="none" /><text fill="#e1ed5e" style="font-size:6.75px; font-family:Arial;" text-anchor="middle"><textPath startOffset="21.46611528233685" xlink:href="#id11">November</textPath></text><path d="M 82.34701348167596 88.62581576622439 l -22.165234981965558 -14.281519221017302 a47.36777262238956,47.36777262238956 0 0,0 0.4475202601849085,-0.6816040588618733 l 21.91611808642273 14.660941343856841" fill="red" stroke="none" /><path d="M 82.54541684631803 88.32363383020206 l -30.582415239138413 -20.458321779724763 a57.79438886436145,57.79438886436145 0 0,0 0.560263028305285,-0.822116861211444 l 30.225727745164388 20.981716664206623" fill="red" stroke="none" /><path d="M 82.95767976084542 87.72973835380427 l -12.93133446287164 -9.31040228485779 a36.934334052496105,36.934334052496105 0 0,0 0.3759165747109174,-0.5127497854421521 l 12.769155275647089 9.531614513971444" fill="red" stroke="none" /><path d="M 83.6137871275137 86.86637796730984 l -20.50177348056759 -16.43226204791454 a47.274359209309694,47.274359209309694 0 0,0 0.5143934459737878,-0.630585542198171 l 20.21588154251741 16.782731759720797" fill="red" stroke="none" /><path d="M 84.07557802195018 86.31012108654704 l -32.108177758419444 -27.60270145128471 a63.34199105350404,63.34199105350404 0 0,0 0.7179004403768288,-0.8206843049900381 l 31.62828545446477 28.151301312477692" fill="red" stroke="none" /><path d="M 84.5562425177563 85.77008943001954 l -27.08469214363287 -24.95589220838727 a57.82902529842478,57.82902529842478 0 0,0 0.680820228207991,-0.7262515506346456 l 26.651104593454424 25.418413175899964" fill="red" stroke="none" /><path d="M 85.05521093208273 85.24692304244772 l -18.69122573197304 -18.451454242787058 a47.26438811465509,47.26438811465509 0 0,0 0.576544960093913,-0.5740690928098848 l 18.370844971711815 18.770459186247052" fill="red" stroke="none" /><path d="M 85.57189188830299 84.74124197986013 l -18.079273874483622 -19.12012739958149 a47.31424358792806,47.31424358792806 0 0,0 0.596592318394911,-0.5544675409683862 l 17.747473672293857 19.428499526624528" fill="red" stroke="none" /><path d="M 86.10567301691215 84.25364557470407 l -34.75728736246828 -39.390217772869356 a73.53244979049873,73.53244979049873 0 0,0 0.9562937161180936,-0.8292884871428464 l 34.074099847703415 39.98267125343188" fill="red" stroke="none" /><path d="M 86.93701828274178 83.55741782278169 l -16.351714433949983 -20.582162184566005 a47.2869542762418,47.2869542762418 0 0,0 0.6416782159235094,-0.500840025659503 l 15.995003662867049 20.86058059944873" fill="red" stroke="none" /><path d="M 87.22198572758235 83.33499621200491 l -19.192407769001765 -25.03061440943636 a52.54172115921264,52.54172115921264 0 0,0 0.7224582891846113,-0.544140605282761 l 18.758703326058765 25.357271604224977" fill="red" stroke="none" /><path d="M 87.80319425747018 82.90503203632743 l -30.50903239894016 -42.76127229311368 a73.5293010237657,73.5293010237657 0 0,0 1.036654112443634,-0.7262424539667505 l 29.768447146912866 43.28009958984437" fill="red" stroke="none" /><path d="M 88.39885842347998 82.49532879139004 l -14.50618640839228 -21.888020406857514 a47.25861537564454,47.25861537564454 0 0,0 0.6819485130760944,-0.44355828253667995 l 14.127270869531898 22.134477613553727" fill="red" stroke="none" /><path d="M 89.00827224532344 82.1063720568725 l -27.519377704622457 -44.79928150180083 a73.57653252476113,73.57653252476113 0 0,0 1.0848612145636651,-0.6536167431796366 l 26.74415442384114 45.26634485443908" fill="red" stroke="none" /><line stroke="#e1ed5e" stroke-width="0.3" x1="56.762969772571076" x2="54.21961505331055" y1="26.818313649435495" y2="22.513508569990535" /><path d="M 56.25429882871897 25.957352633546506 a86.0,86.0 0 0,1 42.265352541879196,-11.944610805530505" fill="none" id="id12" stroke="none" /><text fill="#e1ed5e" style="font-size:6.75px; font-family:Arial;" text-anchor="middle"><textPath startOffset="22.20632615414155" xlink:href="#id12">December</textPath></text><path d="M 89.63071344664047 81.73862282372117 l -18.17672091644282 -32.01106988171495 a57.811707081393116,57.811707081393116 0 0,0 0.869586935077863,-0.48392418788903574 l 17.623009892292913 32.31920946716417" fill="red" stroke="none" /><path d="M 90.26544431104013 81.39251694778311 l -24.3458361534997 -46.53676532274264 a73.5203795180221,73.5203795180221 0 0,0 1.1264005265913082,-0.576986099353878 l 23.54117513931963 46.94894394740903" fill="red" stroke="none" /><path d="M 91.23893434514133 80.91482961587045 l -26.28319696457602 -57.25551115238866 a84.0,84.0 0 0,0 1.3192715261329024,-0.5919186779338843 l 25.293743319976343 57.69945016083907" fill="red" stroke="none" /><path d="M 91.90106846888425 80.62456947434976 l -14.178915275113384 -33.9208433589749 a57.76500037485319,57.76500037485319 0 0,0 0.9207084475569814,-0.3755800933708475 l 13.592922957968023 34.159884338529324" fill="red" stroke="none" /><path d="M 92.57280143429618 80.3572730644239 l -13.020164240311463 -34.434454467093595 a57.813806259215134,57.813806259215134 0 0,0 0.9338792808326773,-0.34395562046212974 l 12.425502633706216 34.653473355362046" fill="red" stroke="none" /><path d="M 92.91201910852362 80.23233633223022 l -12.40938379039174 -34.60851952743381 a57.76604996376419,57.76604996376419 0 0,0 0.9388853527053392,-0.32755866406174 l 11.811816433623115 34.81699904466776" fill="red" stroke="none" /><path d="M 93.94186890950719 79.89281104454417 l -15.144242736032798 -50.26437126106 a73.49623897306888,73.49623897306888 0 0,0 1.21447208972343,-0.35453770600773965 l 14.276780428585946 50.51760729598644" fill="red" stroke="none" /></svg>