<?xml version="1.0" encoding="utf-8" ?>
<svg baseProfile="full" height="200mm" version="1.1" viewBox="0,0,200,200" width="200mm" xmlns="http://www.w3.org/2000/svg" xmlns:ev="http://www.w3.org/2001/xml-events" xmlns:xlink="http://www.w3.org/1999/xlink"><defs /><rect fill="#1a1a1a" height="200" width="200" x="0" y="0" /><rect fill="#1a1a1a" height="200" width="180" x="10" y="0" /><text alignment-baseline="middle" fill="#e1ed5e" style="dominant-baseline: central; font-size:9.0px; font-family:Arial;" text-anchor="middle" x="100.0" y="100.0">2025</text><line stroke="#e1ed5e" stroke-width="0.3" x1="100.0" x2="100.0" y1="15.0" y2="10.0" /><path d="M 100.0 14.0 a86.0,86.0 0 0,1 42.46469731375804,11.215312516191453" fill="none" id="id1" stroke="none" /><text fill="#e1ed5e" style="font-size:6.75px; font-family:Arial;" text-anchor="middle"><textPath startOffset="22.20632615414155" xlink:href="#id1">January</textPath></text><line stroke="#e1ed5e" stroke-width="0.3" x1="143.23703022742887" x2="145.7803849466894" y1="26.81831364943548" y2="22.513508569990506" /><path d="M 143.74570117128098 25.957352633546492 a86.0,86.0 0 0,1 28.547481713284135,27.462654790039103" fill="none" id="id2" stroke="none" /><text fill="#e1ed5e" style="font-size:6.75px; font-family:Arial;" text-anchor="middle"><textPath startOffset="19.985693538727396" xlink:href="#id2">February</textPath></text><line stroke="#e1ed5e" stroke-width="0.3" x1="172.23445277983987" x2="176.4835382374775" y1="55.19839476539836" y2="52.563006222186495" /><path d="M 173.08426987136738 54.67131705675599 a86.0,86.0 0 0,1 12.851231095245387,41.99856678651699" fill="none" id="id3" stroke="none" /><text fill="#e1ed5e" style="font-size:6.75px; font-family:Arial;" text-anchor="middle"><textPath startOffset="22.20632615414155" xlink:href="#id3">March</textPath></text><line stroke="#e1ed5e" stroke-width="0.3" x1="184.98032266829074" x2="189.97916517819016" y1="98.17113171792111" y2="98.06355123074" /><path d="M 185.9800911702706 98.14961562048488 a86.0,86.0 0 0,1 -9.607161424134198,41.387399972396054" fill="none" id="id4" stroke="none" /><text fill="#e1ed5e" style="font-size:6.75px; font-family:Arial;" text-anchor="middle"><textPath startOffset="21.466115282336823" xlink:href="#id4">April</textPath></text><line stroke="#e1ed5e" stroke-width="0.3" x1="174.80103733775053" x2="179.2010983576182" y1="140.37084112569926" y2="142.7455964860345" /><path d="M 175.68104954172406 140.8457921977663 a86.0,86.0 0 0,1 -30.038265399797805,32.042727171017184" fill="none" id="id5" stroke="none" /><text fill="#e1ed5e" style="font-size:6.75px; font-family:Arial;" text-anchor="middle"><textPath startOffset="22.206326154141568" xlink:href="#id5">May</textPath></text><line stroke="#e1ed5e" stroke-width="0.3" x1="143.8653032363475" x2="146.44561519142675" y1="172.8068346515853" y2="177.08958963109032" /><path d="M 144.38136562736335 173.6633856474863 a86.0,86.0 0 0,1 -40.68145358897372,12.25698825130547" fill="none" id="id6" stroke="none" /><text fill="#e1ed5e" style="font-size:6.75px; font-family:Arial;" text-anchor="middle"><textPath startOffset="21.466115282336833" xlink:href="#id6">June</textPath></text><line stroke="#e1ed5e" stroke-width="0.3" x1="102.19456741930631" x2="102.32365962044197" y1="184.97166512339345" y2="189.96999836594603" /><path d="M 102.22038585953345 185.97133177190398 a86.0,86.0 0 0,1 -42.740103519485714,-10.115201625700543" fill="none" id="id7" stroke="none" /><text fill="#e1ed5e" style="font-size:6.75px; font-family:Arial;" text-anchor="middle"><textPath startOffset="22.20632615414155" xlink:href="#id7">July</textPath></text><line stroke="#e1ed5e" stroke-width="0.3" x1="58.666819895761336" x2="56.23545636021788" y1="174.27360380694188" y2="178.64263932499728" /><path d="M 58.180547188652646 175.14741091055294 a86.0,86.0 0 0,1 -31.652253787137756,-30.449443065178592" fill="none" id="id8" stroke="none" /><text fill="#e1ed5e" style="font-size:6.75px; font-family:Arial;" text-anchor="middle"><textPath startOffset="22.20632615414155" xlink:href="#id8">August</textPath></text><line stroke="#e1ed5e" stroke-width="0.3" x1="26.63291911575756" x2="22.317208475507996" y1="142.92168965132927" y2="145.44649492493687" /><path d="M 25.769776987707644 143.4266507060508 a86.0,86.0 0 0,1 -11.730757126820373,-40.83630448921669" fill="none" id="id9" stroke="none" /><text fill="#e1ed5e" style="font-size:6.75px; font-family:Arial;" text-anchor="middle"><textPath startOffset="21.46611528233685" xlink:href="#id9">September</textPath></text><line stroke="#e1ed5e" stroke-width="0.3" x1="15.007084014347285" x2="10.007500721073583" y1="101.09737516637583" y2="101.16192664675087" /><path d="M 14.007167355692545 101.11028546245083 a86.0,86.0 0 0,1 10.666146001902534,-42.60595125391555" fill="none" id="id10" stroke="none" /><text fill="#e1ed5e" style="font-size:6.75px; font-family:Arial;" text-anchor="middle"><textPath startOffset="22.20632615414155" xlink:href="#id10">October</textPath></text><path d="M 79.3925641242962 95.95851677861259 l -10.375722948323006 -2.0348630687649587 a31.573376679612817,31.573376679612817 0 0,0 0.10918480213402731,-0.5324238713987438 l 10.339158850273982 2.2131625963271047" fill="red" stroke="none" /><path d="M 79.62865764111835 94.90015583598534 l -10.645254221752426 -2.6649759579337227 a31.973765730236025,31.973765730236025 0 0,0 0.13825405772499486,-0.5327492817939442 l 10.597803832157123 2.8478216652765305" fill="red" stroke="none" /><path d="M 80.38941819471856 92.48833698450439 l -11.891844056036266 -4.555067568556876 a33.73438634592196,33.73438634592196 0 0,0 0.21237635551018536,-0.5404746597769626 l 11.81167415064439 4.759091233229602" fill="red" stroke="none" /><path d="M 80.52162464483688 92.15188598940014 l -19.573231042594422 -7.886332713953739 a42.10226568693416,42.10226568693416 0 0,0 0.2766285522739148,-0.6698779813112233 l 19.434580803434308 8.222085265718274" fill="red" stroke="none" /><path d="M 81.10775173730289 90.83032412892265 l -15.17456230494768 -7.3652333955711855 a37.86754291881233,37.86754291881233 0 0,0 0.2896686478078142,-0.5839543181600677 l 15.045533644186452 7.625347302230215" fill="red" stroke="none" /><line stroke="#e1ed5e" stroke-width="0.3" x1="26.266209847984243" x2="21.928928074336255" y1="57.711370442889674" y2="55.22380399835377" /><path d="M 25.398753493254645 57.213857153982495 a86.0,86.0 0 0,1 29.58750427330803,-30.492523968695096" fill="none" id="id11" stroke="none" /><text fill="#e1ed5e" style="font-size:6.75px; font-family:Arial;" text-anchor="middle"><textPath startOffset="21.46611528233685" xlink:href="#id11">November</textPath></text><path d="M 82.34701348167596 88.62581576622439 l -17.72625201606845 -11.421390708921276 a42.08715666615592,42.08715666615592 0 0,0 0.39763016622779385,-0.6056180230025826 l 17.527025214482737 11.724826795901526" fill="red" stroke="none" /><path d="M 82.54541684631803 88.32363383020206 l -24.457742055525316 -16.36117857483974 a50.42565735565489,50.42565735565489 0 0,0 0.4888300066753551,-0.7172977163414251 l 24.172487583181223 16.779754314451583" fill="red" stroke="none" /><path d="M 82.95767976084542 87.72973835380427 l -10.341604489166885 -7.445828451927089 a33.743199941375934,33.743199941375934 0 0,0 0.34343730480475293,-0.468448097791081 l 10.211904571848498 7.62273899338967" fill="red" stroke="none" /><path d="M 83.6137871275137 86.86637796730984 l -16.395928298914104 -13.141408989907314 a42.012450952307994,42.012450952307994 0 0,0 0.45713849496042736,-0.5603977421574033 l 16.167291311877285 13.4216909016728" fill="red" stroke="none" /><path d="M 84.07557802195018 86.31012108654704 l -25.677943463516375 -22.07476900866954 a54.8622534291748,54.8622534291748 0 0,0 0.6217934618379979,-0.7108174147490572 l 25.29415813810053 22.51350197962154" fill="red" stroke="none" /><path d="M 84.5562425177563 85.77008943001954 l -21.660500288235188 -19.9580304441457 a50.45335722708165,50.45335722708165 0 0,0 0.593986601087269,-0.6336234915218232 l 21.31374636517746 20.32792335254557" fill="red" stroke="none" /><path d="M 85.05521093208273 85.24692304244772 l -14.947974974492986 -14.75622199524251 a42.004476746897254,42.004476746897254 0 0,0 0.5123830083456968,-0.5101826728730766 l 14.691756165979976 15.011340518765698" fill="red" stroke="none" /><path d="M 85.57189188830299 84.74124197986013 l -14.458577372510215 -15.290981446399348 a42.04434777395093,42.04434777395093 0 0,0 0.5301434200728332,-0.49271053184056796 l 14.193226068642526 15.537596564314564" fill="red" stroke="none" /><path d="M 86.10567301691215 84.25364557470407 l -27.7965217009122 -31.50162530547567 a63.01189135894584,63.01189135894584 0 0,0 0.8194732518630427,-0.71063912879211 l 27.250154650402386 31.97542942768746" fill="red" stroke="none" /><path d="M 86.93701828274178 83.55741782278169 l -13.076992469821228 -16.460217733584237 a42.02252363282682,42.02252363282682 0 0,0 0.5702405326380623,-0.4450817807294558 l 12.79171938202374 16.682877903536916" fill="red" stroke="none" /><path d="M 87.22198572758235 83.33499621200491 l -15.348786384862704 -20.01778819397643 a46.224929884284094,46.224929884284094 0 0,0 0.6356012522064655,-0.4787216857660409 l 15.001938978897849 20.279026469248322" fill="red" stroke="none" /><path d="M 87.80319425747018 82.90503203632743 l -24.399055435687192 -34.19756613508462 a63.00937318881613,63.00937318881613 0 0,0 0.8883387293124124,-0.6223380498716056 l 23.80678556679112 34.612489027720166" fill="red" stroke="none" /><path d="M 88.39885842347998 82.49532879139004 l -11.601064291736462 -17.504554595540736 a41.999860101659465,41.999860101659465 0 0,0 0.606063929678558,-0.3942008386279096 l 11.298033336273615 17.70165435832818" fill="red" stroke="none" /><path d="M 89.00827224532344 82.1063720568725 l -22.008132325888603 -35.827427712173716 a63.047145740761714,63.047145740761714 0 0,0 0.9296089494306761,-0.5600789905664605 l 21.388161310240278 36.2009533121988" fill="red" stroke="none" /><line stroke="#e1ed5e" stroke-width="0.3" x1="56.762969772571076" x2="54.21961505331055" y1="26.818313649435495" y2="22.513508569990535" /><path d="M 56.25429882871897 25.957352633546506 a86.0,86.0 0 0,1 42.265352541879196,-11.944610805530505" fill="none" id="id12" stroke="none" /><text fill="#e1ed5e" style="font-size:6.75px; font-family:Arial;" text-anchor="middle"><textPath startOffset="22.20632615414155" xlink:href="#id12">December</textPath></text><path d="M 89.63071344664047 81.73862282372117 l -14.536508909234033 -25.600283168166037 a50.43950729136827,50.43950729136827 0 0,0 0.7586964434484834,-0.42221374935587347 l 14.093688376713505 25.846712315082094" fill="red" stroke="none" /><path d="M 90.26544431104013 81.39251694778311 l -19.47014897653824 -37.21694946138663 a63.00223837344862,63.00223837344862 0 0,0 0.9652528311947542,-0.4944399907613165 l 18.82663565775472 37.546581977460455" fill="red" stroke="none" /><path d="M 91.23893434514133 80.91482961587045 l -21.01951878972252 -45.78907558714535 a71.38312826013097,71.38312826013097 0 0,0 1.1211158161890917,-0.5030119869824002 l 20.228220855066656 46.14410790464428" fill="red" stroke="none" /><path d="M 91.90106846888425 80.62456947434976 l -11.339335030088382 -27.12759050233404 a50.40215443444431,50.40215443444431 0 0,0 0.8033530522240976,-0.3277078809960725 l 10.870698108275903 27.318759269513688" fill="red" stroke="none" /><path d="M 92.57280143429618 80.3572730644239 l -10.41264452202513 -27.538341841003433 a50.44118607145474,50.44118607145474 0 0,0 0.8147877059253305,-0.30009318836860965 l 9.937074490327229 27.71349829717837" fill="red" stroke="none" /><path d="M 92.91201910852362 80.23233633223022 l -9.924183732388846 -27.677547273713415 a50.40299382448754,50.40299382448754 0 0,0 0.8192118495897472,-0.28580692867554064 l 9.446289878735813 27.844275055561166" fill="red" stroke="none" /><path d="M 93.94186890950719 79.89281104454417 l -12.11133847892218 -40.19803593906075 a62.982932402454225,62.982932402454225 0 0,0 1.0407473171483863,-0.30382268104615445 l 11.417600944050372 40.40055694902561" fill="red" stroke="none" /><path d="M 94.63758080256005 79.69619591428918 l -16.08725759231985 -60.91141225713247 a84.0,84.0 0 0,0 1.4011644452600023,-0.35718801532454725 l 15.036384258374849 61.17930326862588" fill="red" stroke="none" /><path d="M 95.33964822691252 79.52364482259891 l -6.524411761548838 -28.666542582595568 a50.399636264314594,50.399636264314594 0 0,0 0.8475713450837504,-0.18524626764205085 l 6.029997692311567 28.774602348333488" fill="red" stroke="none" /><path d="M 96.40284397218896 79.31037775812273 l -3.609712968158203 -20.76184550666982 a42.07330673044255,42.07330673044255 0 0,0 0.7145866529480529,-0.11791292055113752 l 3.2517971090712647 20.82090469016059" fill="red" stroke="none" /><path d="M 96.75951476605007 79.25152402106235 l -4.539278468302044 -29.064508387366217 a50.41684376020092,50.41684376020092 0 0,0 0.8586012970252462,-0.12653551225510587 l 4.038308190848149 29.13833838378229" fill="red" stroke="none" /></svg>